# xmcd
#
# Track frame offsets: 
#        150
#        18417
#        35045
#        48752
#        66042
#        85295
#        102497
#        119900
#        137750
#        156012
#        177025
#        200187
#        212687
#        228820
#        256432
#        271612
#        290880
#        303650
#
# Disc length: 4256 seconds
#
# Revision: 3
# Processed by: cddbd v1.5.2PL0 Copyright (c) Steve Scherf et al.
# Submitted via: ExactAudioCopy v0.99pb5
#
DISCID=0c109e12
DTITLE=Various Artist - WOMAN 7 Disc 2
DYEAR=0
DGENRE=Rock
TTITLE0=Various Artist - Easy Breezy - Utada
TTITLE1=Various Artist - What You Waiting For? - Gwen Stefani
TTITLE2=Various Artist - Coz I Can - Ana Johnsson
TTITLE3=Various Artist - All That I Can Say - Mary J. Blige
TTITLE4=Various Artist - Turn It Up - Ashanti feat. Ja Rule
TTITLE5=Various Artist - Whatever U Want - Christina Milian
TTITLE6=Various Artist - Move Ya Body - Nina Sky feat. Jabba
TTITLE7=Various Artist - Things Come and Go - Mya feat. Sean Paul
TTITLE8=Various Artist - Leave (Get Out) - JoJo
TTITLE9=Various Artist - Breathe (2 AM) - Anna Nalick
TTITLE10=Various Artist - Un Homme et Une Femme - Clementine
TTITLE11=Various Artist - David - Nellie Mckay
TTITLE12=Various Artist - Fools Like Me - Lisa Loeb
TTITLE13=Various Artist - Simple Days - Meja
TTITLE14=Various Artist - Oceania - Bjork
TTITLE15=Various Artist - Left Outside Alone - Anastacia
TTITLE16=Various Artist - Life Is Cool - Sweetbox
TTITLE17=Various Artist - Sexy, Naughty, Bitchy - Tata Young
EXTD=
EXTT0=
EXTT1=
EXTT2=
EXTT3=
EXTT4=
EXTT5=
EXTT6=
EXTT7=
EXTT8=
EXTT9=
EXTT10=
EXTT11=
EXTT12=
EXTT13=
EXTT14=
EXTT15=
EXTT16=
EXTT17=
PLAYORDER=
